<svg xmlns="http://www.w3.org/2000/svg" viewBox="0 0 128 128" role="img" aria-labelledby="title desc">
  <title id="title">金鱼 logo 07：方向标</title>
  <desc id="desc">把金鱼和方向感结合，适合“帮项目找方向”的定位。</desc>
  <rect width="128" height="128" rx="64" fill="#ffffff"/>
  <circle cx="64" cy="64" r="42" fill="none" stroke="#dfd8cf" stroke-width="4"/>
  <path d="M34 64c10-15 30-20 47-8 7 5 11 8 15 8-4 0-8 4-15 8-17 12-37 7-47-8Z" fill="none" stroke="#171615" stroke-width="5" stroke-linecap="round" stroke-linejoin="round"/>
  <path d="M80 56c9-10 18-13 25-10-2 8-8 13-20 18m-5 8c9 10 18 13 25 10-2-8-8-13-20-18" fill="none" stroke="#9f3b30" stroke-width="5" stroke-linecap="round" stroke-linejoin="round"/>
  <path d="M64 27v12m0 50v12M27 64h12m50 0h12" stroke="#254f43" stroke-width="4" stroke-linecap="round"/>
  <circle cx="44" cy="62" r="3.5" fill="#171615"/>
</svg>
